Coordinates
version=1
nRows=16
nColumns=22
inDegrees=yes

Units are S.I. units (second, meters, Newtons, ...)
If the header above contains a line with 'inDegrees', this indicates whether rotational values are in degrees (yes) or radians (no).

endheader
time	pelvis_tilt	pelvis_list	pelvis_rotation	pelvis_tx	pelvis_ty	pelvis_tz	hip_flexion_r	hip_adduction_r	hip_rotation_r	knee_angle_r	ankle_angle_r	subtalar_angle_r	hip_flexion_l	hip_adduction_l	hip_rotation_l	knee_angle_l	ankle_angle_l	subtalar_angle_l	lumbar_extension	lumbar_bending	lumbar_rotation
      4.14000000	      1.21007976	     -4.79739292	     86.98032009	      0.35548295	      0.86389607	     -0.33551234	     24.65869360	     -2.39935825	     -3.52239450	    -29.78722482	     13.01376052	      1.36246218	     14.79363032	     -9.26358878	      2.00590950	    -66.25791820	      4.38381992	     14.44187051	     -4.62089190	      3.95939639	     10.07001905
      4.15000000	      1.18828185	     -4.66605982	     86.99231240	      0.35837256	      0.86507120	     -0.34027607	     24.05077699	     -2.20499149	     -3.53947723	    -29.60281440	     13.24584565	      1.08271195	     16.17175292	     -9.90622992	      0.58367447	    -67.49350722	      5.33373789	     11.81209404	     -4.79069473	      3.85212234	     10.81243589
      4.16000000	      1.10387052	     -4.53574711	     86.95895584	      0.36108941	      0.86627931	     -0.34495159	     23.45743490	     -2.07540057	     -3.50681038	    -29.40669154	     13.46033789	      0.82650019	     17.43146570	    -10.41520992	     -0.79151820	    -68.44712451	      6.22823096	      9.46964166	     -4.94127387	      3.68033301	     11.55794098
      4.17000000	      0.96169203	     -4.41468484	     86.89875487	      0.36355847	      0.86752150	     -0.34953578	     22.87273964	     -2.02129201	     -3.44938710	    -29.17658748	     13.65446143	      0.60115165	     18.58500384	    -10.77686871	     -2.09772127	    -69.12110371	      7.03750746	      7.54656151	     -5.06485667	      3.46125782	     12.30050587
      4.18000000	      0.77474798	     -4.30246686	     86.82475033	      0.36578651	      0.86878871	     -0.35400160	     22.30458101	     -2.03220291	     -3.38122801	    -28.93069192	     13.82405381	      0.41280982	     19.63852489	    -11.00805736	     -3.33428610	    -69.52293315	      7.74770650	      6.11572191	     -5.16822005	      3.20949195	     12.98298174
      4.19000000	      0.55594446	     -4.20300290	     86.75148747	      0.36775292	      0.87006168	     -0.35835160	     21.74950373	     -2.10319008	     -3.32854626	    -28.66016457	     13.97249660	      0.26567705	     20.60312729	    -11.11132475	     -4.47072625	    -69.66652589	      8.36408715	      5.19664924	     -5.24722998	      2.94071689	     13.62904571
      4.20000000	      0.32443156	     -4.11904369	     86.68075094	      0.36947349	      0.87131622	     -0.36257454	     21.21265978	     -2.21324354	     -3.29364893	    -28.37090560	     14.09608073	      0.17903780	     21.48815275	    -11.11504191	     -5.50574373	    -69.56745291	      8.88747099	      4.84156571	     -5.30310741	      2.67522118	     14.23956876
      4.21000000	      0.07685602	     -4.04946937	     86.65466161	      0.37087728	      0.87252983	     -0.36668842	     20.68850185	     -2.38339304	     -3.32450831	    -28.06881167	     14.22950732	      0.10656472	     22.30370593	    -10.99657290	     -6.39887362	    -69.23652692	      9.38891999	      4.73723027	     -5.33518173	      2.41512120	     14.72808051
      4.22000000	     -0.16619359	     -4.00011966	     86.65446719	      0.37204589	      0.87367601	     -0.37069034	     20.18584856	     -2.57576721	     -3.39559918	    -27.75577544	     14.34830751	      0.06150667	     23.05262388	    -10.80022316	     -7.16817860	    -68.68805903	      9.87155249	      4.88657857	     -5.34143389	      2.17573650	     15.12522894
      4.23000000	     -0.43972091	     -3.94308975	     86.66377529	      0.37300117	      0.87479854	     -0.37459125	     19.68403532	     -2.82238403	     -3.47901264	    -27.44414195	     14.48996193	      0.02656484	     23.69514153	    -10.48842588	     -7.82255308	    -67.91605821	     10.25195599	      5.41139243	     -5.35258581	      1.91008425	     15.50500964
      4.24000000	     -0.67161243	     -3.90512840	     86.71410025	      0.37376651	      0.87583103	     -0.37841656	     19.18985856	     -3.04989547	     -3.62197312	    -27.11413196	     14.62042697	      0.02839595	     24.27325967	    -10.15456649	     -8.32907741	    -66.95679894	     10.63400021	      6.16867709	     -5.33939665	      1.70203791	     15.77599284
      4.25000000	     -0.84926322	     -3.89175178	     86.78217437	      0.37444722	      0.87676555	     -0.38216202	     18.70627762	     -3.22264783	     -3.77737355	    -26.75377072	     14.72317008	      0.05763296	     24.79044008	     -9.84184295	     -8.71340977	    -65.83036559	     10.98121939	      7.07164483	     -5.29867841	      1.55404110	     15.97202822
      4.26000000	     -1.03334550	     -3.87243820	     86.84979370	      0.37503528	      0.87765274	     -0.38586951	     18.22857492	     -3.41132402	     -3.94786153	    -26.41228624	     14.85167904	      0.07999453	     25.19076119	     -9.49197030	     -9.02299636	    -64.51839049	     11.27984137	      7.85714054	     -5.25725141	      1.39626441	     16.13730843
      4.27000000	     -1.18729787	     -3.86103051	     86.91592251	      0.37559583	      0.87847786	     -0.38953569	     17.75770435	     -3.56569757	     -4.11984180	    -26.06483162	     14.96948591	      0.09833802	     25.49386290	     -9.16341049	     -9.25081480	    -63.04531272	     11.55072481	      8.54507981	     -5.20204090	      1.26268447	     16.27405982
      4.28000000	     -1.32105156	     -3.86000919	     86.97123604	      0.37614175	      0.87924416	     -0.39316559	     17.30217358	     -3.69456365	     -4.28932364	    -25.71873921	     15.07942141	      0.10098525	     25.69826075	     -8.85432798	     -9.41432074	    -61.41753662	     11.80895658	      9.00720257	     -5.12989669	      1.14203007	     16.39451976
      4.29000000	     -1.43476767	     -3.87362460	     87.00812974	      0.37669424	      0.87994856	     -0.39677669	     16.86585580	     -3.79377052	     -4.44114626	    -25.37243813	     15.16689149	      0.09042006	     25.80388229	     -8.58160976	     -9.54387730	    -59.64472824	     12.08119945	      9.24951506	     -5.03137553	      1.03419924	     16.49142842
